<?xml version="1.0" encoding="utf-8"?>
<!-- Generator: Adobe Illustrator 23.0.3, SVG Export Plug-In . SVG Version: 6.00 Build 0)  -->
<!DOCTYPE svg PUBLIC "-//W3C//DTD SVG 1.1//EN" "http://www.w3.org/Graphics/SVG/1.1/DTD/svg11.dtd" [
	<!ENTITY ns_extend "http://ns.adobe.com/Extensibility/1.0/">
	<!ENTITY ns_ai "http://ns.adobe.com/AdobeIllustrator/10.0/">
	<!ENTITY ns_graphs "http://ns.adobe.com/Graphs/1.0/">
	<!ENTITY ns_vars "http://ns.adobe.com/Variables/1.0/">
	<!ENTITY ns_imrep "http://ns.adobe.com/ImageReplacement/1.0/">
	<!ENTITY ns_sfw "http://ns.adobe.com/SaveForWeb/1.0/">
	<!ENTITY ns_custom "http://ns.adobe.com/GenericCustomNamespace/1.0/">
	<!ENTITY ns_adobe_xpath "http://ns.adobe.com/XPath/1.0/">
]>
<svg version="1.1" xmlns:x="&ns_extend;" xmlns:i="&ns_ai;" xmlns:graph="&ns_graphs;"
	 xmlns="http://www.w3.org/2000/svg" xmlns:xlink="http://www.w3.org/1999/xlink" x="0px" y="0px" viewBox="0 0 1500 875"
	 enable-background="new 0 0 1500 875" xml:space="preserve">
<metadata>
	<sfw  xmlns="&ns_sfw;">
		<slices></slices>
		<sliceSourceBounds  bottomLeftOrigin="true" height="12702.864" width="7722.781" x="-5015.781" y="-4936"></sliceSourceBounds>
	</sfw>
</metadata>
<g id="FILL-BACKGROUND">
	<rect x="0" y="0" fill="#FFFFFF" width="1500" height="875"/>
</g>
<g id="N-DIMENSIONS">
	<g id="MTEXT_139_">
		<g>
			<g>
				<g>
					<path fill="#1B7FFF" d="M547.224,811.848v6.288h-3.384v-16.944h6.168c2,0,3.508,0.48,4.524,1.44
						c1.016,0.96,1.524,2.264,1.524,3.912c0,1.616-0.524,2.903-1.572,3.864c-1.048,0.96-2.541,1.439-4.476,1.439H547.224z
						 M552.624,806.544c0-0.848-0.232-1.496-0.696-1.944c-0.464-0.447-1.224-0.672-2.28-0.672h-2.424v5.208h2.424
						C551.631,809.136,552.624,808.271,552.624,806.544z"/>
					<path fill="#1B7FFF" d="M561.647,800.376v17.76h-3.384v-17.76H561.647z"/>
					<path fill="#1B7FFF" d="M572.808,805.464c0.8,0.528,1.368,1.24,1.704,2.136v-2.76h3.36v13.296h-3.36v-2.784
						c-0.336,0.896-0.904,1.612-1.704,2.148c-0.8,0.536-1.76,0.804-2.88,0.804c-1.12,0-2.128-0.271-3.024-0.816
						c-0.896-0.543-1.596-1.332-2.1-2.363c-0.504-1.032-0.756-2.244-0.756-3.637c0-1.392,0.252-2.604,0.756-3.636
						s1.204-1.819,2.1-2.364c0.896-0.543,1.904-0.815,3.024-0.815C571.047,804.672,572.007,804.936,572.808,805.464z
						 M568.439,808.655c-0.64,0.688-0.96,1.633-0.96,2.832c0,1.2,0.32,2.141,0.96,2.82c0.64,0.681,1.488,1.021,2.544,1.021
						c1.024,0,1.868-0.349,2.532-1.044c0.664-0.696,0.996-1.628,0.996-2.797c0-1.184-0.333-2.124-0.996-2.819
						c-0.664-0.696-1.508-1.044-2.532-1.044C569.928,807.624,569.079,807.968,568.439,808.655z"/>
					<path fill="#1B7FFF" d="M592.535,806.16c0.912,1.008,1.368,2.424,1.368,4.248v7.728h-3.36v-7.344
						c0-1.057-0.272-1.876-0.816-2.46s-1.288-0.876-2.232-0.876c-0.96,0-1.728,0.312-2.304,0.936
						c-0.576,0.624-0.864,1.521-0.864,2.688v7.056h-3.384V804.84h3.384v2.664c0.352-0.896,0.932-1.596,1.74-2.101
						c0.808-0.504,1.74-0.756,2.796-0.756C590.399,804.647,591.623,805.151,592.535,806.16z"/>
				</g>
			</g>
		</g>
	</g>
	<g>
		<g id="POLYLINE_1008_">
			
				<polyline fill="none" stroke="#1B7FFF" stroke-width="2" stroke-linecap="round" stroke-linejoin="round" stroke-miterlimit="10" points="
				750.332,266.242 742.984,273.59 735.637,266.242 			"/>
		</g>
		<g id="POLYLINE_1007_">
			
				<polyline fill="none" stroke="#1B7FFF" stroke-width="2" stroke-linecap="round" stroke-linejoin="round" stroke-miterlimit="10" points="
				750.332,87.119 742.984,79.772 735.637,87.119 			"/>
		</g>
		<g id="MTEXT_138_">
			<g>
				<g>
					<g>
						<path fill="#1B7FFF" d="M741.319,219.704c-0.08-0.087-0.12-0.196-0.12-0.33v-11.28l-3.359,2.58
							c-0.094,0.08-0.194,0.12-0.3,0.12c-0.12,0-0.233-0.066-0.34-0.2l-0.48-0.619c-0.067-0.094-0.1-0.188-0.1-0.281
							c0-0.146,0.066-0.266,0.2-0.359l4.339-3.359c0.146-0.094,0.32-0.141,0.52-0.141h0.94c0.133,0,0.243,0.043,0.33,0.13
							c0.086,0.087,0.13,0.196,0.13,0.33v13.08c0,0.134-0.043,0.243-0.13,0.33c-0.087,0.087-0.197,0.13-0.33,0.13h-0.98
							C741.505,219.834,741.398,219.791,741.319,219.704z"/>
						<path fill="#1B7FFF" d="M747.839,219.494c-0.734-0.36-1.293-0.83-1.68-1.41s-0.593-1.203-0.62-1.87v-0.04
							c0-0.106,0.04-0.193,0.12-0.26s0.173-0.1,0.28-0.1h0.98c0.28,0,0.46,0.146,0.54,0.439c0.2,0.721,0.57,1.257,1.11,1.609
							c0.54,0.354,1.163,0.531,1.87,0.531c0.907,0,1.66-0.277,2.26-0.83c0.6-0.554,0.9-1.316,0.9-2.291c0-0.893-0.3-1.603-0.9-2.129
							c-0.6-0.527-1.354-0.791-2.26-0.791c-0.48,0-0.867,0.061-1.16,0.181c-0.293,0.12-0.594,0.294-0.9,0.521
							c-0.173,0.133-0.316,0.229-0.43,0.289c-0.113,0.061-0.237,0.09-0.37,0.09h-0.96c-0.12,0-0.227-0.043-0.32-0.129
							c-0.094-0.088-0.134-0.191-0.12-0.311l0.62-6.66c0.04-0.333,0.207-0.5,0.5-0.5h6.92c0.146,0,0.26,0.04,0.34,0.12
							s0.12,0.193,0.12,0.34v0.74c0,0.134-0.043,0.239-0.13,0.319c-0.087,0.08-0.197,0.121-0.33,0.121h-5.76l-0.36,4.02
							c0.64-0.453,1.5-0.68,2.58-0.68c0.893,0,1.707,0.176,2.44,0.529c0.733,0.354,1.316,0.87,1.75,1.551
							c0.433,0.68,0.65,1.486,0.65,2.42c0,0.986-0.217,1.836-0.65,2.549c-0.434,0.715-1.033,1.254-1.8,1.621
							c-0.767,0.366-1.644,0.55-2.63,0.55C749.438,220.034,748.572,219.854,747.839,219.494z"/>
						<path fill="#1B7FFF" d="M757.769,219.704c-0.087-0.087-0.13-0.196-0.13-0.33v-1.38c0-0.133,0.043-0.246,0.13-0.34
							c0.086-0.094,0.196-0.141,0.33-0.141h1.38c0.133,0,0.243,0.047,0.33,0.141c0.087,0.094,0.13,0.207,0.13,0.34v1.38
							c0,0.134-0.043,0.243-0.13,0.33c-0.086,0.087-0.197,0.13-0.33,0.13h-1.38C757.965,219.834,757.855,219.791,757.769,219.704z"
							/>
						<path fill="#1B7FFF" d="M763.389,219.704c-0.073-0.087-0.11-0.19-0.11-0.31l0.04-0.181l5-11.7h-6.6
							c-0.133,0-0.244-0.043-0.33-0.13c-0.087-0.087-0.13-0.196-0.13-0.329v-0.74c0-0.146,0.04-0.264,0.12-0.351
							c0.08-0.087,0.193-0.13,0.34-0.13h8.16c0.146,0,0.26,0.043,0.34,0.13s0.12,0.204,0.12,0.351v0.68c0,0.24-0.054,0.5-0.16,0.779
							l-4.94,11.561c-0.067,0.146-0.14,0.268-0.22,0.359c-0.08,0.094-0.193,0.141-0.34,0.141h-1
							C763.559,219.834,763.462,219.791,763.389,219.704z"/>
						<path fill="#1B7FFF" d="M774.099,219.494c-0.734-0.36-1.293-0.83-1.68-1.41s-0.593-1.203-0.62-1.87v-0.04
							c0-0.106,0.04-0.193,0.12-0.26s0.173-0.1,0.28-0.1h0.98c0.28,0,0.46,0.146,0.54,0.439c0.2,0.721,0.57,1.257,1.11,1.609
							c0.54,0.354,1.163,0.531,1.87,0.531c0.907,0,1.66-0.277,2.26-0.83c0.6-0.554,0.9-1.316,0.9-2.291c0-0.893-0.3-1.603-0.9-2.129
							c-0.6-0.527-1.354-0.791-2.26-0.791c-0.48,0-0.867,0.061-1.16,0.181c-0.293,0.12-0.594,0.294-0.9,0.521
							c-0.173,0.133-0.316,0.229-0.43,0.289c-0.113,0.061-0.237,0.09-0.37,0.09h-0.96c-0.12,0-0.227-0.043-0.32-0.129
							c-0.094-0.088-0.134-0.191-0.12-0.311l0.62-6.66c0.04-0.333,0.207-0.5,0.5-0.5h6.92c0.146,0,0.26,0.04,0.34,0.12
							s0.12,0.193,0.12,0.34v0.74c0,0.134-0.043,0.239-0.13,0.319c-0.087,0.08-0.197,0.121-0.33,0.121h-5.76l-0.36,4.02
							c0.64-0.453,1.5-0.68,2.58-0.68c0.893,0,1.707,0.176,2.44,0.529c0.733,0.354,1.316,0.87,1.75,1.551
							c0.433,0.68,0.65,1.486,0.65,2.42c0,0.986-0.217,1.836-0.65,2.549c-0.434,0.715-1.033,1.254-1.8,1.621
							c-0.767,0.366-1.644,0.55-2.63,0.55C775.698,220.034,774.832,219.854,774.099,219.494z"/>
						<path fill="#1B7FFF" d="M783.928,209.314c-0.06-0.08-0.077-0.181-0.05-0.301l0.44-2.8c0.053-0.386,0.24-0.58,0.56-0.58h1.28
							c0.093,0,0.17,0.034,0.23,0.101s0.09,0.146,0.09,0.24c0,0.133-0.02,0.239-0.06,0.319l-1.04,2.7
							c-0.067,0.146-0.14,0.257-0.22,0.33s-0.2,0.109-0.36,0.109h-0.62C784.071,209.434,783.988,209.395,783.928,209.314z
							 M787.068,209.314c-0.06-0.08-0.077-0.181-0.05-0.301l0.44-2.8c0.053-0.386,0.24-0.58,0.56-0.58h1.28
							c0.093,0,0.17,0.034,0.23,0.101s0.09,0.146,0.09,0.24c0,0.133-0.02,0.239-0.06,0.319l-1.04,2.7
							c-0.066,0.146-0.139,0.257-0.219,0.33s-0.2,0.109-0.36,0.109h-0.62C787.211,209.434,787.128,209.395,787.068,209.314z"/>
						<path fill="#1B7FFF" d="M743.829,241.703c-0.087-0.086-0.13-0.196-0.13-0.33v-2.92h-6.5c-0.133,0-0.244-0.043-0.33-0.129
							c-0.087-0.088-0.13-0.197-0.13-0.33v-0.74c0-0.188,0.073-0.387,0.22-0.601l6.02-8.479c0.067-0.107,0.167-0.19,0.3-0.25
							c0.133-0.061,0.28-0.09,0.44-0.09h1.36c0.146,0,0.26,0.039,0.34,0.119c0.08,0.08,0.12,0.193,0.12,0.34v8.48h1.82
							c0.133,0,0.243,0.043,0.33,0.13s0.13,0.197,0.13,0.33v0.761c0,0.133-0.043,0.242-0.13,0.33
							c-0.087,0.086-0.197,0.129-0.33,0.129h-1.82v2.92c0,0.134-0.043,0.244-0.13,0.33c-0.087,0.088-0.197,0.131-0.33,0.131h-0.92
							C744.025,241.834,743.915,241.791,743.829,241.703z M738.819,236.813h4.899v-6.96L738.819,236.813z"/>
						<path fill="#1B7FFF" d="M751.028,240.523c-0.793-1.006-1.217-2.323-1.27-3.949l-0.02-1.721l0.02-1.779
							c0.04-1.613,0.463-2.924,1.27-3.931s2.063-1.511,3.77-1.511c1.72,0,2.983,0.504,3.79,1.511s1.23,2.317,1.27,3.931
							c0.013,0.373,0.02,0.967,0.02,1.779c0,0.787-0.007,1.359-0.02,1.721c-0.053,1.626-0.477,2.943-1.27,3.949
							c-0.793,1.007-2.057,1.51-3.79,1.51C753.079,242.033,751.822,241.53,751.028,240.523z M757.119,239.354
							c0.52-0.68,0.793-1.641,0.82-2.88c0.013-0.387,0.02-0.94,0.02-1.66c0-0.733-0.007-1.28-0.02-1.64
							c-0.027-1.227-0.303-2.184-0.83-2.87s-1.297-1.03-2.31-1.03s-1.78,0.344-2.3,1.03s-0.793,1.644-0.82,2.87l-0.02,1.64
							l0.02,1.66c0.026,1.239,0.3,2.2,0.82,2.88s1.287,1.02,2.3,1.02C755.825,240.373,756.599,240.033,757.119,239.354z"/>
						<path fill="#1B7FFF" d="M768.378,240.824c-0.8-0.807-1.22-1.938-1.26-3.391l-0.02-0.801l0.02-0.799
							c0.04-1.453,0.46-2.584,1.26-3.391c0.8-0.807,1.913-1.21,3.34-1.21c0.96,0,1.77,0.17,2.43,0.511
							c0.66,0.34,1.153,0.763,1.48,1.27s0.503,1.014,0.53,1.52c0.013,0.12-0.03,0.227-0.13,0.32c-0.1,0.094-0.21,0.141-0.33,0.141
							h-0.88c-0.133,0-0.233-0.031-0.3-0.091c-0.067-0.06-0.133-0.17-0.2-0.329c-0.24-0.654-0.57-1.117-0.99-1.391
							s-0.95-0.41-1.59-0.41c-0.84,0-1.507,0.26-2,0.78c-0.494,0.521-0.76,1.313-0.8,2.38l-0.02,0.699l0.02,0.701
							c0.04,1.066,0.307,1.859,0.8,2.379c0.493,0.521,1.16,0.781,2,0.781c0.653,0,1.187-0.137,1.6-0.41
							c0.414-0.273,0.74-0.736,0.98-1.391c0.067-0.16,0.133-0.27,0.2-0.33c0.066-0.06,0.167-0.09,0.3-0.09h0.88
							c0.12,0,0.23,0.047,0.33,0.141c0.1,0.093,0.143,0.199,0.13,0.319c-0.027,0.493-0.204,0.993-0.53,1.5s-0.82,0.934-1.48,1.28
							c-0.66,0.346-1.47,0.52-2.43,0.52C770.291,242.033,769.178,241.631,768.378,240.824z"/>
						<path fill="#1B7FFF" d="M778.688,241.703c-0.087-0.086-0.13-0.196-0.13-0.33v-9.479c0-0.134,0.043-0.243,0.13-0.33
							s0.197-0.13,0.33-0.13h0.84c0.133,0,0.24,0.043,0.32,0.13s0.12,0.196,0.12,0.33v0.681c0.72-0.895,1.693-1.341,2.92-1.341
							c1.466,0,2.506,0.614,3.12,1.841c0.32-0.561,0.777-1.008,1.37-1.341s1.256-0.5,1.99-0.5c1.093,0,1.986,0.374,2.68,1.12
							c0.693,0.747,1.04,1.826,1.04,3.24v5.779c0,0.134-0.043,0.244-0.13,0.33c-0.087,0.088-0.197,0.131-0.33,0.131h-0.86
							c-0.133,0-0.244-0.043-0.33-0.131c-0.087-0.086-0.13-0.196-0.13-0.33v-5.6c0-1.066-0.22-1.83-0.66-2.29s-1.02-0.69-1.74-0.69
							c-0.64,0-1.189,0.237-1.65,0.711c-0.46,0.473-0.69,1.229-0.69,2.27v5.6c0,0.134-0.043,0.244-0.13,0.33
							c-0.087,0.088-0.197,0.131-0.33,0.131h-0.88c-0.133,0-0.244-0.043-0.33-0.131c-0.087-0.086-0.13-0.196-0.13-0.33v-5.6
							c0-1.053-0.23-1.812-0.69-2.279s-1.03-0.701-1.71-0.701c-0.64,0-1.19,0.234-1.65,0.701c-0.46,0.467-0.69,1.219-0.69,2.26
							v5.619c0,0.134-0.043,0.244-0.13,0.33c-0.087,0.088-0.197,0.131-0.33,0.131h-0.88
							C778.885,241.834,778.775,241.791,778.688,241.703z"/>
					</g>
				</g>
			</g>
		</g>
		<g id="POLYLINE_1006_">
			
				<line fill="none" stroke="#1B7FFF" stroke-width="2" stroke-linecap="round" stroke-linejoin="round" stroke-miterlimit="10" x1="742.984" y1="273.59" x2="742.984" y2="249"/>
		</g>
		<g id="POLYLINE_1005_">
			
				<line fill="none" stroke="#1B7FFF" stroke-width="2" stroke-linecap="round" stroke-linejoin="round" stroke-miterlimit="10" x1="742.984" y1="197.023" x2="742.984" y2="79.772"/>
		</g>
	</g>
	<g>
		<g id="POLYLINE_1004_">
			
				<polyline fill="none" stroke="#1B7FFF" stroke-width="2" stroke-linecap="round" stroke-linejoin="round" stroke-miterlimit="10" points="
				80.332,800.242 72.984,807.59 65.637,800.242 			"/>
		</g>
		<g id="POLYLINE_1003_">
			
				<polyline fill="none" stroke="#1B7FFF" stroke-width="2" stroke-linecap="round" stroke-linejoin="round" stroke-miterlimit="10" points="
				80.332,386.119 72.984,378.772 65.637,386.119 			"/>
		</g>
		<g id="MTEXT_137_">
			<g>
				<g>
					<g>
						<path fill="#1B7FFF" d="M69.339,712.523c-0.76-0.34-1.337-0.783-1.73-1.33c-0.394-0.546-0.604-1.112-0.63-1.699
							c0-0.12,0.04-0.217,0.12-0.29s0.18-0.11,0.3-0.11h0.9c0.146,0,0.267,0.03,0.36,0.09c0.093,0.061,0.167,0.178,0.22,0.351
							c0.173,0.68,0.55,1.159,1.13,1.44c0.58,0.279,1.263,0.42,2.05,0.42c0.96,0,1.723-0.23,2.29-0.69
							c0.566-0.46,0.85-1.116,0.85-1.97c0-1.627-0.994-2.44-2.98-2.44h-1.88c-0.134,0-0.244-0.043-0.33-0.13
							c-0.087-0.086-0.13-0.197-0.13-0.33v-0.52c0-0.201,0.073-0.373,0.22-0.521l3.9-4.319h-5.919c-0.133,0-0.243-0.041-0.33-0.121
							s-0.13-0.186-0.13-0.319v-0.72c0-0.146,0.043-0.264,0.13-0.351s0.197-0.13,0.33-0.13h7.919c0.146,0,0.263,0.043,0.35,0.13
							c0.086,0.087,0.13,0.204,0.13,0.351v0.66c0,0.146-0.067,0.299-0.2,0.459l-3.9,4.381h0.32c1.36,0.039,2.437,0.393,3.23,1.06
							c0.793,0.667,1.19,1.64,1.19,2.92c0,0.88-0.217,1.637-0.65,2.271c-0.434,0.633-1.037,1.119-1.81,1.459
							c-0.773,0.34-1.647,0.511-2.62,0.511C70.999,713.034,70.099,712.863,69.339,712.523z"/>
						<path fill="#1B7FFF" d="M81.449,712.384c-0.78-0.433-1.374-1.017-1.78-1.75s-0.61-1.532-0.61-2.399
							c0-1.146,0.46-2.373,1.38-3.68l3.82-5.32c0.013-0.014,0.05-0.061,0.11-0.141s0.137-0.143,0.23-0.189s0.2-0.07,0.32-0.07h0.98
							c0.12,0,0.217,0.043,0.29,0.13s0.11,0.19,0.11,0.31c0,0.067-0.034,0.154-0.1,0.261l-2.92,4.079
							c0.346-0.079,0.733-0.119,1.16-0.119c0.973,0,1.83,0.217,2.57,0.65c0.74,0.434,1.313,1.006,1.72,1.719
							c0.407,0.715,0.61,1.498,0.61,2.351c0,0.854-0.203,1.649-0.61,2.39s-0.997,1.33-1.77,1.771s-1.687,0.66-2.74,0.66
							C83.152,713.034,82.229,712.817,81.449,712.384z M85.819,711.014c0.493-0.24,0.886-0.596,1.18-1.07
							c0.293-0.473,0.44-1.043,0.44-1.709c0-0.653-0.15-1.217-0.45-1.69c-0.3-0.474-0.697-0.833-1.19-1.08
							c-0.494-0.247-1.027-0.37-1.6-0.37c-0.574,0-1.107,0.123-1.6,0.37c-0.494,0.247-0.887,0.606-1.18,1.08s-0.44,1.037-0.44,1.69
							c0,0.666,0.146,1.236,0.44,1.709c0.293,0.475,0.687,0.83,1.18,1.07c0.493,0.24,1.026,0.36,1.6,0.36
							C84.785,711.374,85.325,711.254,85.819,711.014z"/>
						<path fill="#1B7FFF" d="M91.288,702.314c-0.06-0.08-0.077-0.181-0.05-0.301l0.44-2.8c0.053-0.386,0.24-0.58,0.56-0.58h1.28
							c0.093,0,0.17,0.034,0.23,0.101s0.09,0.146,0.09,0.24c0,0.133-0.02,0.239-0.06,0.319l-1.04,2.7
							c-0.067,0.146-0.14,0.257-0.22,0.33s-0.2,0.109-0.36,0.109h-0.62C91.431,702.434,91.348,702.395,91.288,702.314z
							 M94.428,702.314c-0.06-0.08-0.077-0.181-0.05-0.301l0.44-2.8c0.053-0.386,0.24-0.58,0.56-0.58h1.28
							c0.093,0,0.17,0.034,0.23,0.101s0.09,0.146,0.09,0.24c0,0.133-0.02,0.239-0.06,0.319l-1.04,2.7
							c-0.067,0.146-0.14,0.257-0.22,0.33s-0.2,0.109-0.36,0.109h-0.62C94.571,702.434,94.488,702.395,94.428,702.314z"/>
						<path fill="#1B7FFF" d="M69.708,734.703c-0.073-0.086-0.109-0.189-0.109-0.31c0-0.093,0.026-0.181,0.08-0.261l3.08-4.279
							c-0.32,0.08-0.693,0.12-1.12,0.12c-0.96-0.013-1.8-0.237-2.52-0.67c-0.72-0.433-1.27-1-1.65-1.7s-0.57-1.45-0.57-2.25
							s0.19-1.561,0.57-2.279c0.38-0.721,0.946-1.307,1.7-1.761c0.753-0.453,1.663-0.681,2.729-0.681s1.98,0.221,2.74,0.66
							c0.76,0.44,1.333,1.018,1.72,1.73c0.386,0.713,0.58,1.477,0.58,2.29c0,0.733-0.13,1.38-0.39,1.94
							c-0.26,0.56-0.604,1.14-1.03,1.74l-3.88,5.439c-0.093,0.12-0.184,0.217-0.27,0.29c-0.087,0.073-0.21,0.11-0.37,0.11h-1
							C69.878,734.834,69.782,734.791,69.708,734.703z M73.479,728.014c0.48-0.254,0.86-0.61,1.14-1.07s0.42-0.99,0.42-1.59
							c0-0.613-0.14-1.153-0.42-1.62c-0.28-0.466-0.66-0.827-1.14-1.08s-1.007-0.38-1.58-0.38c-0.56,0-1.077,0.127-1.55,0.38
							c-0.474,0.253-0.85,0.614-1.129,1.08c-0.28,0.467-0.42,1.007-0.42,1.62c0,0.6,0.14,1.13,0.42,1.59
							c0.28,0.46,0.652,0.816,1.12,1.07c0.466,0.254,0.986,0.38,1.56,0.38S72.999,728.268,73.479,728.014z"/>
						<path fill="#1B7FFF" d="M83.139,734.703c-0.08-0.086-0.12-0.196-0.12-0.33v-11.279l-3.36,2.58
							c-0.094,0.08-0.194,0.119-0.3,0.119c-0.12,0-0.233-0.066-0.34-0.199l-0.48-0.62c-0.067-0.093-0.1-0.187-0.1-0.28
							c0-0.146,0.066-0.267,0.2-0.359l4.34-3.36c0.146-0.093,0.32-0.14,0.52-0.14h0.94c0.133,0,0.243,0.043,0.33,0.129
							c0.086,0.088,0.13,0.197,0.13,0.33v13.08c0,0.134-0.043,0.244-0.13,0.33c-0.087,0.088-0.197,0.131-0.33,0.131h-0.98
							C83.325,734.834,83.218,734.791,83.139,734.703z"/>
						<path fill="#1B7FFF" d="M87.928,734.703c-0.087-0.086-0.13-0.196-0.13-0.33v-1.379c0-0.134,0.043-0.247,0.13-0.341
							c0.086-0.093,0.196-0.14,0.33-0.14h1.38c0.133,0,0.243,0.047,0.33,0.14c0.087,0.094,0.13,0.207,0.13,0.341v1.379
							c0,0.134-0.043,0.244-0.13,0.33c-0.086,0.088-0.197,0.131-0.33,0.131h-1.38C88.125,734.834,88.015,734.791,87.928,734.703z"/>
						<path fill="#1B7FFF" d="M98.828,734.703c-0.087-0.086-0.13-0.196-0.13-0.33v-2.92h-6.5c-0.133,0-0.244-0.043-0.33-0.129
							c-0.087-0.088-0.13-0.197-0.13-0.33v-0.74c0-0.188,0.073-0.387,0.22-0.601l6.02-8.479c0.067-0.107,0.167-0.19,0.3-0.25
							c0.133-0.061,0.28-0.09,0.44-0.09h1.36c0.146,0,0.26,0.039,0.34,0.119c0.08,0.08,0.12,0.193,0.12,0.34v8.48h1.82
							c0.133,0,0.243,0.043,0.33,0.13s0.13,0.197,0.13,0.33v0.761c0,0.133-0.043,0.242-0.13,0.33
							c-0.087,0.086-0.197,0.129-0.33,0.129h-1.82v2.92c0,0.134-0.043,0.244-0.13,0.33c-0.087,0.088-0.197,0.131-0.33,0.131h-0.92
							C99.025,734.834,98.915,734.791,98.828,734.703z M93.818,729.813h4.9v-6.96L93.818,729.813z"/>
						<path fill="#1B7FFF" d="M110.718,733.824c-0.8-0.807-1.22-1.938-1.26-3.391l-0.02-0.801l0.02-0.799
							c0.04-1.453,0.46-2.584,1.26-3.391c0.8-0.807,1.913-1.21,3.34-1.21c0.96,0,1.77,0.17,2.43,0.511
							c0.66,0.34,1.153,0.763,1.48,1.27s0.503,1.014,0.53,1.52c0.013,0.12-0.03,0.227-0.129,0.32c-0.1,0.094-0.21,0.141-0.33,0.141
							h-0.88c-0.133,0-0.233-0.031-0.3-0.091c-0.067-0.06-0.133-0.17-0.2-0.329c-0.24-0.654-0.57-1.117-0.99-1.391
							s-0.95-0.41-1.59-0.41c-0.84,0-1.507,0.26-2,0.78c-0.494,0.521-0.76,1.313-0.8,2.38l-0.02,0.699l0.02,0.701
							c0.04,1.066,0.307,1.859,0.8,2.379c0.493,0.521,1.16,0.781,2,0.781c0.653,0,1.187-0.137,1.6-0.41
							c0.414-0.273,0.74-0.736,0.98-1.391c0.067-0.16,0.133-0.27,0.2-0.33c0.066-0.06,0.167-0.09,0.3-0.09h0.88
							c0.12,0,0.23,0.047,0.33,0.141c0.099,0.093,0.143,0.199,0.129,0.319c-0.027,0.493-0.203,0.993-0.53,1.5s-0.82,0.934-1.48,1.28
							c-0.66,0.346-1.47,0.52-2.43,0.52C112.631,735.033,111.518,734.631,110.718,733.824z"/>
						<path fill="#1B7FFF" d="M121.027,734.703c-0.087-0.086-0.13-0.196-0.13-0.33v-9.479c0-0.134,0.043-0.243,0.13-0.33
							s0.197-0.13,0.33-0.13h0.84c0.133,0,0.24,0.043,0.32,0.13s0.12,0.196,0.12,0.33v0.681c0.72-0.895,1.693-1.341,2.92-1.341
							c1.466,0,2.506,0.614,3.12,1.841c0.32-0.561,0.777-1.008,1.37-1.341s1.257-0.5,1.99-0.5c1.093,0,1.986,0.374,2.68,1.12
							c0.693,0.747,1.04,1.826,1.04,3.24v5.779c0,0.134-0.043,0.244-0.13,0.33c-0.087,0.088-0.197,0.131-0.33,0.131h-0.86
							c-0.133,0-0.244-0.043-0.33-0.131c-0.087-0.086-0.13-0.196-0.13-0.33v-5.6c0-1.066-0.22-1.83-0.66-2.29s-1.02-0.69-1.74-0.69
							c-0.64,0-1.19,0.237-1.65,0.711c-0.46,0.473-0.69,1.229-0.69,2.27v5.6c0,0.134-0.043,0.244-0.13,0.33
							c-0.087,0.088-0.197,0.131-0.33,0.131h-0.88c-0.133,0-0.244-0.043-0.33-0.131c-0.087-0.086-0.13-0.196-0.13-0.33v-5.6
							c0-1.053-0.23-1.812-0.69-2.279s-1.03-0.701-1.71-0.701c-0.64,0-1.19,0.234-1.65,0.701c-0.46,0.467-0.69,1.219-0.69,2.26
							v5.619c0,0.134-0.043,0.244-0.13,0.33c-0.087,0.088-0.197,0.131-0.33,0.131h-0.88
							C121.224,734.834,121.114,734.791,121.027,734.703z"/>
					</g>
				</g>
			</g>
		</g>
		<g id="POLYLINE_1002_">
			
				<line fill="none" stroke="#1B7FFF" stroke-width="2" stroke-linecap="round" stroke-linejoin="round" stroke-miterlimit="10" x1="72.984" y1="807.59" x2="72.984" y2="742"/>
		</g>
		<g id="POLYLINE_1001_">
			
				<line fill="none" stroke="#1B7FFF" stroke-width="2" stroke-linecap="round" stroke-linejoin="round" stroke-miterlimit="10" x1="72.984" y1="690.023" x2="72.984" y2="378.772"/>
		</g>
	</g>
	<g>
		<g id="POLYLINE_1000_">
			
				<polyline fill="none" stroke="#1B7FFF" stroke-width="2" stroke-linecap="round" stroke-linejoin="round" stroke-miterlimit="10" points="
				104.423,310.028 97.075,302.681 104.423,295.333 			"/>
		</g>
		<g id="POLYLINE_999_">
			
				<polyline fill="none" stroke="#1B7FFF" stroke-width="2" stroke-linecap="round" stroke-linejoin="round" stroke-miterlimit="10" points="
				718.546,310.028 725.893,302.681 718.546,295.333 			"/>
		</g>
		<g id="MTEXT_135_">
			<g>
				<g>
					<g>
						<path fill="#1B7FFF" d="M373.051,308.476c-0.734-0.36-1.293-0.83-1.68-1.41s-0.593-1.203-0.62-1.87v-0.04
							c0-0.106,0.04-0.192,0.12-0.26c0.08-0.066,0.173-0.101,0.28-0.101h0.98c0.28,0,0.46,0.147,0.54,0.44
							c0.2,0.72,0.57,1.257,1.11,1.61c0.54,0.354,1.163,0.529,1.87,0.529c0.907,0,1.66-0.276,2.26-0.83
							c0.6-0.553,0.9-1.316,0.9-2.289c0-0.894-0.3-1.604-0.9-2.131c-0.6-0.526-1.354-0.789-2.26-0.789c-0.48,0-0.867,0.06-1.16,0.18
							c-0.293,0.119-0.594,0.293-0.9,0.52c-0.173,0.134-0.316,0.23-0.429,0.29s-0.237,0.091-0.37,0.091h-0.96
							c-0.12,0-0.227-0.044-0.32-0.131c-0.094-0.086-0.134-0.189-0.12-0.31l0.62-6.66c0.04-0.333,0.207-0.5,0.5-0.5h6.919
							c0.146,0,0.26,0.04,0.34,0.12s0.12,0.193,0.12,0.34v0.74c0,0.133-0.043,0.24-0.13,0.32c-0.087,0.08-0.197,0.119-0.33,0.119
							h-5.76l-0.359,4.021c0.64-0.453,1.5-0.681,2.58-0.681c0.893,0,1.707,0.178,2.44,0.53c0.733,0.354,1.316,0.87,1.75,1.55
							c0.433,0.681,0.65,1.487,0.65,2.42c0,0.987-0.217,1.838-0.65,2.551c-0.434,0.713-1.033,1.253-1.8,1.619
							c-0.767,0.367-1.644,0.551-2.63,0.551C374.65,309.016,373.784,308.836,373.051,308.476z"/>
						<path fill="#1B7FFF" d="M384.22,307.506c-0.793-1.007-1.217-2.324-1.27-3.95l-0.02-1.72l0.02-1.78
							c0.04-1.613,0.463-2.923,1.27-3.931c0.807-1.006,2.063-1.51,3.77-1.51c1.72,0,2.983,0.504,3.79,1.51
							c0.807,1.008,1.23,2.317,1.27,3.931c0.013,0.373,0.02,0.967,0.02,1.78c0,0.786-0.007,1.359-0.02,1.72
							c-0.053,1.626-0.477,2.943-1.27,3.95c-0.793,1.006-2.057,1.51-3.79,1.51C386.271,309.016,385.014,308.512,384.22,307.506z
							 M390.311,306.336c0.52-0.681,0.793-1.641,0.82-2.881c0.013-0.387,0.02-0.939,0.02-1.66c0-0.732-0.007-1.279-0.02-1.64
							c-0.027-1.227-0.303-2.183-0.83-2.87c-0.527-0.687-1.297-1.029-2.31-1.029s-1.78,0.343-2.3,1.029
							c-0.52,0.688-0.793,1.644-0.82,2.87l-0.02,1.64l0.02,1.66c0.026,1.24,0.3,2.2,0.82,2.881c0.52,0.68,1.287,1.02,2.3,1.02
							C389.017,307.355,389.791,307.016,390.311,306.336z"/>
						<path fill="#1B7FFF" d="M395.541,298.295c-0.06-0.08-0.077-0.18-0.05-0.299l0.44-2.801c0.053-0.387,0.24-0.58,0.56-0.58h1.28
							c0.093,0,0.17,0.033,0.23,0.1c0.06,0.067,0.09,0.147,0.09,0.24c0,0.134-0.02,0.24-0.06,0.32l-1.04,2.7
							c-0.067,0.146-0.14,0.257-0.22,0.33s-0.2,0.11-0.36,0.11h-0.62C395.684,298.416,395.601,298.375,395.541,298.295z
							 M398.681,298.295c-0.06-0.08-0.077-0.18-0.05-0.299l0.44-2.801c0.053-0.387,0.24-0.58,0.56-0.58h1.28
							c0.093,0,0.17,0.033,0.23,0.1c0.06,0.067,0.09,0.147,0.09,0.24c0,0.134-0.02,0.24-0.06,0.32l-1.04,2.7
							c-0.067,0.146-0.14,0.257-0.22,0.33s-0.2,0.11-0.36,0.11h-0.62C398.824,298.416,398.741,298.375,398.681,298.295z"/>
						<path fill="#1B7FFF" d="M408.55,312.846c-0.08-0.087-0.12-0.197-0.12-0.33v-21.16c0-0.133,0.04-0.243,0.12-0.33
							c0.08-0.086,0.187-0.13,0.32-0.13h0.74c0.133,0,0.243,0.044,0.33,0.13c0.087,0.087,0.13,0.197,0.13,0.33v21.16
							c0,0.133-0.043,0.243-0.13,0.33c-0.086,0.086-0.197,0.13-0.33,0.13h-0.74C408.736,312.976,408.63,312.932,408.55,312.846z"/>
						<path fill="#1B7FFF" d="M421.669,308.686c-0.08-0.087-0.12-0.197-0.12-0.33v-11.28l-3.36,2.58
							c-0.094,0.08-0.194,0.12-0.3,0.12c-0.12,0-0.233-0.066-0.34-0.2l-0.48-0.62c-0.067-0.093-0.1-0.186-0.1-0.279
							c0-0.146,0.066-0.268,0.2-0.36l4.34-3.36c0.146-0.093,0.32-0.14,0.52-0.14h0.939c0.133,0,0.243,0.044,0.33,0.13
							c0.086,0.087,0.13,0.197,0.13,0.33v13.08c0,0.133-0.043,0.243-0.13,0.33c-0.087,0.087-0.197,0.13-0.33,0.13h-0.979
							C421.856,308.815,421.749,308.772,421.669,308.686z"/>
						<path fill="#1B7FFF" d="M426.079,308.686c-0.087-0.087-0.13-0.197-0.13-0.33v-0.6c0-0.307,0.167-0.601,0.5-0.881l4.36-4.34
							c0.987-0.84,1.667-1.526,2.04-2.06c0.373-0.533,0.56-1.101,0.56-1.7c0-0.787-0.22-1.403-0.66-1.85
							c-0.44-0.447-1.08-0.67-1.92-0.67c-0.8,0-1.433,0.232-1.9,0.699s-0.753,1.094-0.86,1.881c-0.027,0.146-0.094,0.26-0.2,0.34
							c-0.107,0.08-0.213,0.119-0.32,0.119h-0.96c-0.12,0-0.22-0.039-0.3-0.119c-0.08-0.08-0.12-0.174-0.12-0.28
							c0.026-0.706,0.216-1.39,0.57-2.05c0.353-0.66,0.876-1.2,1.57-1.62s1.533-0.63,2.52-0.63c1.493,0,2.617,0.39,3.37,1.17
							c0.753,0.779,1.13,1.77,1.13,2.97c0,0.84-0.203,1.597-0.61,2.271c-0.407,0.673-1.043,1.383-1.91,2.129l-3.94,4h6.3
							c0.146,0,0.26,0.041,0.34,0.121s0.12,0.193,0.12,0.34v0.76c0,0.133-0.043,0.243-0.13,0.33c-0.086,0.087-0.197,0.13-0.33,0.13
							h-8.76C426.275,308.815,426.166,308.772,426.079,308.686z"/>
						<path fill="#1B7FFF" d="M439.358,308.686c-0.073-0.087-0.11-0.189-0.11-0.311l0.04-0.18l5-11.699h-6.6
							c-0.133,0-0.244-0.044-0.33-0.131c-0.087-0.086-0.13-0.196-0.13-0.33v-0.74c0-0.146,0.04-0.263,0.12-0.35
							c0.08-0.086,0.193-0.13,0.34-0.13h8.16c0.146,0,0.26,0.044,0.34,0.13c0.08,0.087,0.12,0.203,0.12,0.35v0.681
							c0,0.239-0.054,0.5-0.16,0.78l-4.94,11.56c-0.067,0.147-0.14,0.267-0.22,0.36s-0.193,0.14-0.34,0.14h-1
							C439.528,308.815,439.432,308.772,439.358,308.686z"/>
						<path fill="#1B7FFF" d="M454.089,307.806c-0.801-0.807-1.221-1.937-1.261-3.39l-0.02-0.801l0.02-0.8
							c0.04-1.453,0.46-2.583,1.261-3.39c0.8-0.807,1.913-1.211,3.34-1.211c0.96,0,1.77,0.17,2.43,0.511
							c0.66,0.34,1.153,0.763,1.48,1.271c0.326,0.506,0.503,1.013,0.529,1.52c0.014,0.119-0.029,0.227-0.13,0.32
							c-0.1,0.093-0.21,0.14-0.33,0.14h-0.88c-0.133,0-0.233-0.03-0.3-0.091c-0.066-0.06-0.134-0.17-0.2-0.329
							c-0.24-0.653-0.569-1.116-0.99-1.39c-0.42-0.273-0.949-0.41-1.59-0.41c-0.84,0-1.507,0.26-2,0.779
							c-0.493,0.521-0.76,1.313-0.8,2.381l-0.02,0.699l0.02,0.7c0.04,1.067,0.307,1.86,0.8,2.38s1.16,0.78,2,0.78
							c0.653,0,1.187-0.137,1.601-0.41c0.413-0.272,0.739-0.736,0.979-1.39c0.066-0.16,0.134-0.271,0.2-0.33
							c0.066-0.061,0.167-0.09,0.3-0.09h0.88c0.12,0,0.23,0.047,0.33,0.14c0.101,0.093,0.144,0.2,0.13,0.319
							c-0.026,0.494-0.203,0.994-0.529,1.5c-0.327,0.508-0.82,0.934-1.48,1.281c-0.66,0.346-1.47,0.52-2.43,0.52
							C456.002,309.016,454.889,308.612,454.089,307.806z"/>
						<path fill="#1B7FFF" d="M464.397,308.686c-0.087-0.087-0.13-0.197-0.13-0.33v-9.48c0-0.133,0.043-0.242,0.13-0.33
							c0.087-0.086,0.196-0.129,0.33-0.129h0.84c0.134,0,0.24,0.043,0.32,0.129c0.08,0.088,0.12,0.197,0.12,0.33v0.681
							c0.72-0.894,1.693-1.341,2.92-1.341c1.467,0,2.507,0.614,3.12,1.841c0.319-0.56,0.776-1.007,1.37-1.341
							c0.593-0.332,1.256-0.5,1.989-0.5c1.094,0,1.987,0.374,2.681,1.121c0.692,0.746,1.04,1.826,1.04,3.239v5.78
							c0,0.133-0.044,0.243-0.13,0.33c-0.087,0.087-0.197,0.13-0.33,0.13h-0.86c-0.134,0-0.243-0.043-0.33-0.13
							s-0.13-0.197-0.13-0.33v-5.6c0-1.066-0.22-1.83-0.66-2.291c-0.439-0.459-1.02-0.689-1.74-0.689
							c-0.64,0-1.189,0.236-1.649,0.71s-0.69,1.229-0.69,2.271v5.6c0,0.133-0.043,0.243-0.13,0.33s-0.197,0.13-0.33,0.13h-0.88
							c-0.134,0-0.243-0.043-0.33-0.13s-0.13-0.197-0.13-0.33v-5.6c0-1.054-0.23-1.813-0.69-2.28s-1.029-0.7-1.71-0.7
							c-0.64,0-1.189,0.233-1.649,0.7s-0.69,1.22-0.69,2.26v5.62c0,0.133-0.043,0.243-0.13,0.33s-0.197,0.13-0.33,0.13h-0.88
							C464.594,308.815,464.484,308.772,464.397,308.686z"/>
					</g>
				</g>
			</g>
		</g>
		<g id="POLYLINE_998_">
			
				<line fill="none" stroke="#1B7FFF" stroke-width="2" stroke-linecap="round" stroke-linejoin="round" stroke-miterlimit="10" x1="97.075" y1="302.681" x2="357.665" y2="302.681"/>
		</g>
		<g id="POLYLINE_997_">
			
				<line fill="none" stroke="#1B7FFF" stroke-width="2" stroke-linecap="round" stroke-linejoin="round" stroke-miterlimit="10" x1="490" y1="302.681" x2="725.893" y2="302.681"/>
		</g>
	</g>
	<g>
		<g>
			
				<line fill="none" stroke="#1B7FFF" stroke-width="2.25" stroke-linecap="round" stroke-linejoin="round" x1="343" y1="818" x2="341" y2="818"/>
			
				<line fill="none" stroke="#1B7FFF" stroke-width="2.25" stroke-linecap="round" stroke-linejoin="round" stroke-dasharray="4,5" x1="336" y1="818" x2="77.5" y2="818"/>
			
				<line fill="none" stroke="#1B7FFF" stroke-width="2.25" stroke-linecap="round" stroke-linejoin="round" x1="75" y1="818" x2="73" y2="818"/>
		</g>
	</g>
	<g>
		<g>
			
				<line fill="none" stroke="#1B7FFF" stroke-width="2.25" stroke-linecap="round" stroke-linejoin="round" x1="179" y1="368" x2="177" y2="368"/>
			
				<line fill="none" stroke="#1B7FFF" stroke-width="2.25" stroke-linecap="round" stroke-linejoin="round" stroke-dasharray="3.9231,4.9038" x1="172.096" y1="368" x2="77.452" y2="368"/>
			
				<line fill="none" stroke="#1B7FFF" stroke-width="2.25" stroke-linecap="round" stroke-linejoin="round" x1="75" y1="368" x2="73" y2="368"/>
		</g>
	</g>
</g>
<g id="N-TEXT">
</g>
<g id="AG-DIAGRAM">
	<g id="POLYLINE_994_">
		<g>
			<g>
				
					<line fill="none" stroke="#1B7FFF" stroke-width="2.75" stroke-linecap="round" stroke-linejoin="round" x1="805.954" y1="274.958" x2="807.954" y2="274.958"/>
				
					<line fill="none" stroke="#1B7FFF" stroke-width="2.75" stroke-linecap="round" stroke-linejoin="round" stroke-dasharray="3.9872,6.9775" x1="814.932" y1="274.958" x2="1425.465" y2="274.958"/>
				
					<line fill="none" stroke="#1B7FFF" stroke-width="2.75" stroke-linecap="round" stroke-linejoin="round" x1="1428.954" y1="274.958" x2="1430.954" y2="274.958"/>
			</g>
		</g>
	</g>
	<g id="POLYLINE_993_">
		<g>
			<g>
				
					<line fill="none" stroke="#1B7FFF" stroke-width="2.75" stroke-linecap="round" stroke-linejoin="round" x1="98.954" y1="274.958" x2="100.954" y2="274.958"/>
				
					<line fill="none" stroke="#1B7FFF" stroke-width="2.75" stroke-linecap="round" stroke-linejoin="round" stroke-dasharray="3.9872,6.9775" x1="107.932" y1="274.958" x2="718.465" y2="274.958"/>
				
					<line fill="none" stroke="#1B7FFF" stroke-width="2.75" stroke-linecap="round" stroke-linejoin="round" x1="721.954" y1="274.958" x2="723.954" y2="274.958"/>
			</g>
		</g>
	</g>
</g>
<g id="AG-DETAILS-DASH">
	<g id="POLYLINE_992_">
		<g>
			<g>
				<path fill="none" stroke="#1B7FFF" stroke-width="2.25" stroke-linecap="round" stroke-linejoin="round" d="M246.189,463.724
					c-0.667,0-1.333,0-2,0"/>
				
					<path fill="none" stroke="#1B7FFF" stroke-width="2.25" stroke-linecap="round" stroke-linejoin="round" stroke-dasharray="4.0592,5.0739" d="
					M239.115,463.724c-3.511,0-7.023,0-10.534,0c-3.415,0-6.929,0.397-9.902-1.632c-2.869-1.958-4.442-5.434-4.021-8.88
					c0.42-3.442,2.788-6.443,6.04-7.651c1.49-0.554,2.988-0.588,4.554-0.588c2.144,0,4.287,0,6.431,0"/>
				<path fill="none" stroke="#1B7FFF" stroke-width="2.25" stroke-linecap="round" stroke-linejoin="round" d="M234.22,444.974
					c0.394,0,0.788,0,1.182,0c0.273,0,0.545,0,0.818,0"/>
			</g>
		</g>
	</g>
	<g id="POLYLINE_991_">
		<g>
			<g>
				<path fill="none" stroke="#1B7FFF" stroke-width="2.25" stroke-linecap="round" stroke-linejoin="round" d="M257.456,444.974
					c0.667,0,1.333,0,2,0"/>
				
					<path fill="none" stroke="#1B7FFF" stroke-width="2.25" stroke-linecap="round" stroke-linejoin="round" stroke-dasharray="4.0035,5.0043" d="
					M264.46,444.974c0.875,0,1.75,0,2.625,0c3.737,0,7.474,0,11.21,0c4.922,0,9.844,0,14.767,0c5.956,0,11.913,0,17.869,0
					c6.766,0,13.531,0,20.297,0c7.42,0,14.84,0,22.26,0c7.897,0,15.795,0,23.692,0c8.198,0,16.396,0,24.594,0
					c8.355,0,16.71,0,25.065,0c8.268,0,16.536,0,24.804,0c8.069,0,16.138,0,24.207,0c7.628,0,15.256,0,22.884,0
					c7.043,0,14.086,0,21.13,0c6.281,0,12.563,0,18.844,0c5.343,0,10.686,0,16.028,0c4.242,0,8.484,0,12.725,0
					c2.93,0,5.859,0,8.789,0c1.46,0,2.92-0.002,4.379,0c2.231,0.002,4.358,0.582,6.143,1.966c2.904,2.252,4.238,6.1,3.355,9.664
					c-0.883,3.561-3.867,6.345-7.48,6.978c-1.128,0.198-2.295,0.141-3.437,0.141c-2.195,0-4.39,0-6.586,0c-3.636,0-7.273,0-10.909,0
					c-4.86,0-9.719,0-14.579,0c-5.907,0-11.814,0-17.721,0c-6.795,0-13.589,0-20.384,0c-7.439,0-14.879,0-22.318,0
					c-7.922,0-15.843,0-23.765,0c-8.216,0-16.431,0-24.647,0c-8.355,0-16.71,0-25.065,0c-8.239,0-16.478,0-24.717,0
					c-7.968,0-15.936,0-23.904,0c-7.538,0-15.076,0-22.615,0c-6.859,0-13.719,0-20.578,0c-6.024,0-12.047,0-18.071,0
					c-5,0-10,0-14.999,0c-3.788,0-7.576,0-11.364,0c-1.688,0-3.376,0-5.064,0"/>
				<path fill="none" stroke="#1B7FFF" stroke-width="2.25" stroke-linecap="round" stroke-linejoin="round" d="M269.425,463.724
					c-0.667,0-1.333,0-2,0"/>
			</g>
		</g>
	</g>
</g>
<g id="AG-DETAIL">
</g>
<g id="AG-OBJECTS">
</g>
<g id="AG-DETAILS">
	<g id="POLYLINE_870_">
		
			<path fill="none" stroke="#1B7FFF" stroke-width="2.75" stroke-linecap="round" stroke-linejoin="round" stroke-miterlimit="10" d="
			M548.842,463.724c3.973-0.009,7.604-2.599,8.88-6.37c1.27-3.751-0.016-8.008-3.154-10.428c-2.95-2.276-7.085-2.573-10.331-0.743
			c-3.466,1.955-5.345,6.005-4.606,9.91c0.736,3.888,3.954,6.968,7.87,7.534C547.945,463.691,548.393,463.723,548.842,463.724z"/>
	</g>
	<g id="POLYLINE_869_">
		
			<path fill="none" stroke="#1B7FFF" stroke-width="2.75" stroke-linecap="round" stroke-linejoin="round" stroke-miterlimit="10" d="
			M230.791,434.763c0.491,0.923,0.982,1.846,1.473,2.77c1.398,2.629,2.795,5.257,4.193,7.886c2.183,4.106,4.367,8.212,6.55,12.318
			c2.871,5.4,5.743,10.801,8.614,16.201c3.441,6.472,6.882,12.943,10.323,19.415c3.884,7.305,7.768,14.61,11.653,21.915
			c4.256,8.005,8.513,16.01,12.769,24.015c4.459,8.386,8.918,16.772,13.377,25.159c4.578,8.61,9.156,17.22,13.734,25.83
			c4.617,8.682,9.233,17.365,13.85,26.047c4.481,8.427,8.961,16.854,13.442,25.281c4.279,8.047,8.557,16.094,12.836,24.141
			c3.949,7.427,7.897,14.853,11.846,22.279c3.495,6.573,6.99,13.147,10.486,19.721c2.953,5.554,5.906,11.108,8.86,16.663
			c2.286,4.299,4.572,8.599,6.858,12.898c1.503,2.826,3.005,5.652,4.508,8.478c0.617,1.161,1.222,2.329,1.852,3.483
			c1.818,3.332,5.418,5.353,9.223,4.979c4.292-0.423,7.831-3.86,8.38-8.138c0.294-2.294-0.367-4.363-1.424-6.352
			c-0.975-1.834-1.95-3.668-2.926-5.502c-1.816-3.416-3.632-6.831-5.448-10.247c-2.557-4.809-5.114-9.619-7.672-14.428
			c-3.181-5.982-6.362-11.965-9.543-17.947c-3.679-6.919-7.358-13.838-11.037-20.757c-4.09-7.691-8.179-15.383-12.269-23.074
			c-4.376-8.23-8.752-16.46-13.128-24.691c-4.534-8.528-9.069-17.056-13.603-25.584c-4.611-8.673-9.223-17.346-13.834-26.018
			c-4.561-8.577-9.121-17.155-13.682-25.732c-4.383-8.243-8.766-16.486-13.149-24.729c-4.123-7.754-8.245-15.508-12.368-23.261
			c-3.735-7.024-7.47-14.048-11.204-21.072c-3.224-6.064-6.449-12.128-9.673-18.192c-2.631-4.949-5.262-9.897-7.894-14.846
			c-1.891-3.556-3.781-7.111-5.672-10.667c-1.059-1.991-2.117-3.982-3.176-5.973c-1.032-1.941-2.224-3.684-4.205-4.813
			c-3.646-2.078-8.371-1.429-11.317,1.562C229.546,426.67,228.895,431.18,230.791,434.763z"/>
	</g>
	<g id="POLYLINE_868_">
		
			<path fill="none" stroke="#1B7FFF" stroke-width="2.75" stroke-linecap="round" stroke-linejoin="round" stroke-miterlimit="10" d="
			M1088.36,274.958c-5.422-0.03-6.315-7.301-6.915-11.383c-0.899-6.107-1.522-12.263-1.894-18.424
			c-0.378-6.264-0.603-12.552-0.549-18.828c0.056-6.383,0.5-12.745,1.096-19.099c0.552-5.88,1.277-11.748,2.074-17.6
			c0.948-6.958,1.934-13.906,2.986-20.85c0.914-6.034,1.962-12.059,3.082-18.058c1.147-6.146,2.391-12.281,3.739-18.386
			c1.442-6.532,3.024-13.031,4.652-19.519c1.543-6.149,3.253-12.255,4.964-18.358c0.361-1.29,0.723-2.58,1.084-3.869"/>
	</g>
	<g id="POLYLINE_867_">
		
			<path fill="none" stroke="#1B7FFF" stroke-width="2.75" stroke-linecap="round" stroke-linejoin="round" stroke-miterlimit="10" d="
			M1265.21,181.269c4.266,6.934,8.395,13.937,11.872,21.306c3.4,7.204,5.928,14.671,7.408,22.502
			c1.467,7.76,1.899,15.411,1.069,23.273c-0.691,6.545-1.718,13.596-5.8,18.997c-4.214,5.575-10.959,7.576-17.712,7.61
			c-3.202,0.017-6.404,0-9.606,0c-8.274,0-16.548,0-24.823,0c-11.363,0-22.727,0-34.09,0c-12.447,0-24.893,0-37.34,0
			c-11.524,0-23.047,0-34.571,0c-8.594,0-17.189,0-25.783,0c-3.659,0-7.318,0.012-10.977,0c-6.354-0.02-12.673-1.793-17.028-6.651
			c-4.806-5.362-6.424-12.887-7.133-19.848c-0.821-8.058-0.629-16.261-0.427-24.347c0.204-8.18,0.855-16.335,1.763-24.466
			c0.901-8.063,1.981-16.114,3.154-24.142c1.242-8.502,2.612-16.984,4.113-25.444c1.447-8.161,3.111-16.282,4.877-24.38
			c1.674-7.675,3.52-15.325,5.574-22.908c1.103-4.073,2.245-8.132,3.406-12.189"/>
	</g>
	<g id="POLYLINE_866_">
		
			<path fill="none" stroke="#1B7FFF" stroke-width="2.75" stroke-linecap="round" stroke-linejoin="round" stroke-miterlimit="10" d="
			M1120.99,141.792c4.279-0.077,8.557-0.156,12.837-0.144c4.675,0.013,9.349,0.032,14.023,0.138
			c4.859,0.111,9.715,0.295,14.57,0.516c4.377,0.2,8.749,0.512,13.115,0.877c4.369,0.365,8.739,0.832,13.071,1.507
			c4.229,0.659,8.362,1.628,12.316,3.297c3.877,1.635,7.537,3.76,11.083,6.013c3.97,2.522,7.8,5.243,11.627,7.975
			c3.737,2.668,7.397,5.446,11.069,8.201c3.88,2.911,7.705,5.899,11.555,8.85c1.318,1.01,2.66,2.41,4.411,2.462
			c2.67,0.08,5.355,0.001,8.026,0.002c1.417,0,2.834,0,4.251,0c0.825,0,1.65,0.055,2.427-0.282c1.034-0.449,1.907-1.455,2.737-2.183
			c0.916-0.804,1.836-1.603,2.748-2.411c3.34-2.955,6.661-5.937,9.896-9.007c3.269-3.103,6.484-6.276,9.449-9.674
			c2.727-3.127,5.254-6.458,7.211-10.127c2.048-3.838,3.379-7.976,4.259-12.226c0.879-4.243,1.372-8.581,1.323-12.917
			c-0.042-3.775-0.49-7.555-1.5-11.197c-0.951-3.429-2.412-6.717-4.411-9.665c-2.15-3.172-4.912-5.897-8.059-8.078
			c-1.739-1.205-3.586-2.23-5.498-3.135"/>
	</g>
	<g id="POLYLINE_865_">
		
			<path fill="none" stroke="#1B7FFF" stroke-width="2.75" stroke-linecap="round" stroke-linejoin="round" stroke-miterlimit="10" d="
			M962.6,90.583c-5.616,0.043-11.538,0.56-16.563,3.289c-4.109,2.232-6.889,5.917-8.42,10.287
			c-1.912,5.455-2.368,11.491-2.705,17.222c-0.37,6.303-0.221,12.616,0.27,18.908c0.496,6.346,1.362,12.657,2.393,18.937
			c1.008,6.14,2.195,12.254,3.526,18.332c1.449,6.615,3.035,13.192,4.731,19.748c1.624,6.279,3.444,12.504,5.32,18.711
			c1.815,6.004,3.798,11.96,5.881,17.875c2.114,6.004,4.325,11.979,6.718,17.879c2.43,5.993,4.961,11.943,7.677,17.813
			c0.596,1.289,1.087,2.724,2.115,3.746c1.034,1.029,2.419,1.583,3.868,1.627c3.735,0.113,7.49,0.001,11.226,0.001
			c1.413,0,2.752-0.007,4.027-0.737c1.198-0.685,2.038-1.768,2.513-3.052c0.69-1.866,1.307-3.762,1.96-5.641
			c2.931-8.436,5.861-16.871,8.792-25.307c2.269-6.531,4.538-13.062,6.807-19.593c1.84-5.295,3.799-10.551,5.756-15.804
			c2.238-6.009,4.539-12.001,7.061-17.897c2.4-5.61,4.976-11.214,8.28-16.358c3.078-4.793,6.901-8.821,11.539-12.124
			c4.94-3.519,10.386-6.275,16.064-8.389c2.737-1.019,5.526-1.876,8.343-2.644"/>
	</g>
	<g id="POLYLINE_864_">
		
			<path fill="none" stroke="#1B7FFF" stroke-width="2.75" stroke-linecap="round" stroke-linejoin="round" stroke-miterlimit="10" d="
			M1137.137,201.712c2.752,3.06,5.969,5.68,9.443,7.878c3.582,2.266,7.439,4.076,11.411,5.543c4.196,1.549,8.533,2.719,12.912,3.621
			c4.693,0.966,9.44,1.65,14.21,2.096c4.404,0.412,8.845,0.646,13.269,0.578c4.5-0.07,9.013-0.549,13.324-1.894
			c3.519-1.098,6.852-2.757,9.881-4.855c3.489-2.417,6.534-5.41,9.355-8.565c2.977-3.328,5.731-6.854,8.388-10.44
			c2.74-3.696,5.39-7.461,7.975-11.267c0.71-1.046,1.42-2.091,2.13-3.137"/>
	</g>
	<g id="POLYLINE_863_">
		
			<path fill="none" stroke="#1B7FFF" stroke-width="2.75" stroke-linecap="round" stroke-linejoin="round" stroke-miterlimit="10" d="
			M1111.641,90.583c0.445,2.41,0.89,4.82,1.335,7.231c1.051,5.694,2.103,11.388,3.154,17.083c1.226,6.643,2.453,13.286,3.68,19.929
			c0.99,5.361,1.98,10.722,2.969,16.083c0.395,2.139,0.769,4.283,1.204,6.414c0.958,4.693,1.881,9.395,2.95,14.064
			c1.037,4.53,2.129,9.046,3.45,13.503c1.229,4.144,2.653,8.246,4.432,12.189c1.707,3.784,3.763,7.424,6.343,10.685
			c2.219,2.805,4.82,5.286,7.671,7.441c3.26,2.464,6.836,4.496,10.565,6.158c3.881,1.73,7.925,3.074,12.035,4.145
			c4.423,1.152,8.92,1.98,13.445,2.61c4.358,0.607,8.754,0.981,13.15,1.158c4.255,0.171,8.539,0.182,12.767-0.382
			c4.002-0.534,7.914-1.642,11.544-3.419c3.562-1.745,6.785-4.073,9.689-6.767c3.128-2.901,5.93-6.148,8.595-9.473
			c2.776-3.464,5.415-7.041,7.973-10.668c2.628-3.728,5.193-7.495,7.721-11.292c1.285-1.93,2.57-3.86,3.855-5.79"/>
	</g>
	<g id="POLYLINE_862_">
		
			<path fill="none" stroke="#1B7FFF" stroke-width="2.75" stroke-linecap="round" stroke-linejoin="round" stroke-miterlimit="10" d="
			M445.699,225.839c0.035-4.476,0.047-8.952,0.141-13.427c0.09-4.327,0.227-8.654,0.45-12.977c0.237-4.589,0.543-9.172,0.977-13.747
			c0.393-4.146,0.907-8.287,1.604-12.393c0.722-4.249,1.636-8.488,2.995-12.583c1.2-3.614,2.76-7.135,4.989-10.239
			c2.209-3.074,5.038-5.767,8.067-8.025c3.123-2.329,6.598-4.121,10.3-5.336c3.937-1.292,8.056-1.961,12.166-2.407
			c4.252-0.461,8.531-0.665,12.805-0.78c1.164-0.031,2.329-0.063,3.493-0.094"/>
	</g>
	<g id="POLYLINE_861_">
		
			<path fill="none" stroke="#1B7FFF" stroke-width="2.75" stroke-linecap="round" stroke-linejoin="round" stroke-miterlimit="10" d="
			M584.448,90.583c1.888,5.754,3.096,11.701,3.85,17.705c0.763,6.075,1.065,12.2,0.858,18.319
			c-0.202,5.964-0.907,11.909-2.052,17.765c-1.154,5.899-2.797,11.7-4.726,17.39c-2.012,5.933-4.297,11.765-6.731,17.536
			c-0.304,0.721-0.608,1.442-0.913,2.164"/>
	</g>
	<g id="POLYLINE_860_">
		
			<path fill="none" stroke="#1B7FFF" stroke-width="2.75" stroke-linecap="round" stroke-linejoin="round" stroke-miterlimit="10" d="
			M434.421,225.845c0.059-7.49,0.11-14.974,0.414-22.459c0.301-7.416,0.745-14.842,1.641-22.213
			c0.88-7.238,2.013-14.551,4.449-21.451c2.183-6.184,5.635-11.319,10.62-15.592c5.14-4.406,11.236-7.111,17.856-8.426
			c7.005-1.392,14.221-1.674,21.344-1.804c7.458-0.136,14.993-0.302,22.443,0.157c6.433,0.397,13.318,1.509,18.303,5.931
			c2.531,2.245,4.59,5.012,6.51,7.78c2.032,2.928,3.951,5.939,5.795,8.988c4.074,6.739,7.991,13.568,11.888,20.41
			c0.809,1.42,1.617,2.84,2.426,4.26"/>
	</g>
	<g id="POLYLINE_859_">
		
			<path fill="none" stroke="#1B7FFF" stroke-width="2.75" stroke-linecap="round" stroke-linejoin="round" stroke-miterlimit="10" d="
			M282.066,90.583c1.997,6.712,3.995,13.424,5.992,20.136c3.611,12.136,7.223,24.273,10.834,36.409
			c1.874,6.299,3.673,12.626,5.66,18.891c2.633,8.307,5.2,16.733,8.849,24.664c3.242,7.047,7.632,13.459,13.904,18.137
			c6.497,4.845,14.283,7.812,22.025,9.997c8.232,2.323,16.675,3.712,25.155,4.744c8.307,1.011,16.696,1.523,25.057,1.806
			c9.335,0.316,18.659,0.386,27.999,0.434c9.041,0.046,18.08-0.006,27.122-0.049c8.277-0.04,16.547-0.15,24.815-0.597
			c8.245-0.446,16.606-1.21,24.55-3.577c8.053-2.399,15.229-6.653,21.845-11.764c6.418-4.957,12.402-10.445,18.391-15.902
			c4.181-3.81,8.362-7.619,12.544-11.429c0.739-0.673,1.188-1.138,2.229-1.139c2.676-0.004,5.353-0.003,8.029-0.003
			c2.323,0,4.707-0.156,7.026-0.001c0.57,0.038,0.878,0.24,1.258,0.649c0.761,0.821,1.482,1.685,2.214,2.532
			c2.765,3.199,5.488,6.437,8.117,9.749c5.295,6.67,10.392,13.6,14.359,21.158c3.845,7.324,6.042,15.094,6.737,23.33
			c0.655,7.766-0.119,15.569-2.82,22.91c-1.376,3.74-3.195,7.307-5.324,10.672c-1.046,1.653-2.397,2.602-4.372,2.617
			c-2.635,0.02-5.271,0-7.907,0c-5.939,0-11.878,0-17.817,0c-8.62,0-17.241,0-25.861,0c-10.683,0-21.366,0-32.049,0
			c-12.128,0-24.255,0-36.383,0c-12.954,0-25.907,0-38.861,0c-13.095,0-26.191,0-39.286,0c-12.754,0-25.508,0-38.263,0
			c-11.728,0-23.457,0-35.185,0c-10.084,0-20.168,0-30.252,0c-7.821,0-15.643,0-23.464,0c-4.94,0-9.881,0-14.821,0
			c-2.437,0-4.964,0.142-7.381-0.209c-7.388-1.073-12.593-6.549-16.133-12.765c-4.015-7.049-6.237-14.778-7.108-22.816
			c-0.894-8.253-0.803-16.646-0.34-24.926c0.495-8.863,1.345-17.665,2.718-26.438c1.327-8.472,3.155-16.875,5.317-25.172
			c2.227-8.546,4.851-16.983,7.735-25.329c2.847-8.239,6.04-16.35,9.374-24.403c3.118-7.532,6.531-14.937,9.99-22.318"/>
	</g>
	<g id="POLYLINE_858_">
		
			<path fill="none" stroke="#1B7FFF" stroke-width="2.75" stroke-linecap="round" stroke-linejoin="round" stroke-miterlimit="10" d="
			M561.901,181.341c2.448-5.681,4.922-11.355,7.066-17.161c2.138-5.789,4.097-11.639,5.55-17.641
			c1.466-6.056,2.419-12.221,2.745-18.446c0.324-6.182,0.07-12.399-0.712-18.538c-0.731-5.737-1.917-11.48-3.911-16.92
			c-0.253-0.691-0.524-1.374-0.805-2.053"/>
	</g>
	<g id="POLYLINE_857_">
		
			<path fill="none" stroke="#1B7FFF" stroke-width="2.75" stroke-linecap="round" stroke-linejoin="round" stroke-miterlimit="10" d="
			M402.834,225.493c-0.592-4.576-1.213-9.149-1.777-13.728c-0.539-4.374-1.051-8.754-1.531-13.135
			c-0.472-4.309-0.943-8.625-1.326-12.943c-0.402-4.529-0.838-9.056-1.17-13.591c-0.36-4.913-0.703-9.82-0.982-14.738
			c-0.259-4.565-0.458-9.128-0.61-13.698c-0.15-4.482-0.191-8.97-0.18-13.454c0.01-4.272,0.11-8.551,0.351-12.816
			c0.251-4.433,0.587-8.862,1.241-13.256c0.585-3.93,1.303-8.002,2.955-11.644c0.299-0.659,0.635-1.302,1.032-1.907"/>
	</g>
</g>
<g id="AG-FURNITURE">
	<g id="POLYLINE_448_">
		
			<path fill="none" stroke="#1B7FFF" stroke-width="3.5" stroke-linecap="round" stroke-linejoin="round" stroke-miterlimit="10" d="
			M267.182,370.527c-7.691,0.377-15.383,0.755-23.074,1.132c-6.657,0.327-13.306,0.858-19.95,1.378
			c-6.745,0.528-13.483,1.164-20.204,1.952c-6.941,0.814-13.872,1.768-20.758,2.962c-6.981,1.21-13.914,2.661-20.775,4.433
			c-6.639,1.714-13.208,3.795-19.567,6.365c-6.173,2.496-12.174,5.464-17.747,9.121c-5.629,3.694-10.801,8.111-15.101,13.305
			c-4.378,5.288-7.806,11.314-10.152,17.765c-2.258,6.208-3.527,12.741-4.017,19.321c-0.499,6.702-0.21,13.448,0.608,20.113
			c0.82,6.689,2.176,13.315,3.901,19.828c1.801,6.796,3.978,13.475,6.419,20.067c2.41,6.507,5.103,12.912,7.982,19.225
			c2.829,6.204,5.841,12.326,9.017,18.36c3.27,6.213,6.634,12.376,10.162,18.448c3.687,6.346,7.493,12.617,11.377,18.844
			c3.672,5.888,7.442,11.718,11.282,17.498c3.79,5.704,7.646,11.368,11.583,16.972c4.259,6.063,8.568,12.088,12.944,18.068
			c4.249,5.808,8.591,11.545,12.947,17.273c3.991,5.248,8.072,10.434,12.183,15.588c4.296,5.384,8.633,10.74,13.05,16.025
			c4.742,5.674,9.519,11.316,14.369,16.898c4.728,5.442,9.541,10.807,14.382,16.149c4.392,4.847,8.875,9.627,13.426,14.325
			c5.267,5.438,10.6,10.799,16.007,16.098c4.822,4.726,9.786,9.325,14.822,13.822c5.264,4.7,10.65,9.265,16.18,13.648
			c5.402,4.282,10.954,8.376,16.661,12.243c5.694,3.858,11.552,7.484,17.588,10.782c6.15,3.359,12.48,6.371,18.986,8.975
			c6.341,2.538,12.873,4.623,19.513,6.222c6.663,1.605,13.439,2.677,20.261,3.312c7.093,0.66,14.207,0.75,21.325,0.784
			c6.82,0.033,13.659,0.078,20.468-0.369c6.723-0.441,13.405-1.457,19.898-3.277c6.671-1.87,13.087-4.497,19.281-7.587
			c6.147-3.066,12.059-6.596,17.811-10.346c5.939-3.872,11.684-8.026,17.357-12.275c5.351-4.008,10.599-8.17,15.753-12.429
			c5.473-4.522,10.905-9.091,16.247-13.767c5.06-4.429,10.12-8.875,15.045-13.454c5.512-5.124,11.014-10.249,16.441-15.463
			c5.452-5.239,10.815-10.56,16.181-15.888c4.433-4.403,8.789-8.902,13.087-13.437c5.211-5.498,10.368-11.04,15.476-16.634
			c4.444-4.867,8.809-9.813,13.101-14.814c4.814-5.61,9.575-11.263,14.23-17.006c4.383-5.408,8.65-10.909,12.841-16.466
			c4.274-5.667,8.409-11.437,12.427-17.289c3.895-5.672,7.617-11.467,11.161-17.365c3.624-6.031,7.01-12.191,10.197-18.464
			c3.087-6.077,5.889-12.31,8.408-18.643c2.606-6.552,4.892-13.227,6.786-20.02c1.854-6.648,3.299-13.416,4.288-20.247
			c0.971-6.707,1.469-13.492,1.426-20.269c-0.041-6.589-0.6-13.179-1.731-19.672c-1.184-6.799-2.996-13.49-5.44-19.944
			c-2.344-6.191-5.269-12.163-8.718-17.814c-3.534-5.791-7.617-11.229-12.116-16.304c-4.575-5.161-9.616-9.916-14.963-14.27
			c-5.428-4.42-11.173-8.442-17.148-12.086c-5.749-3.506-11.709-6.667-17.809-9.517c-6.177-2.886-12.502-5.457-18.927-7.738
			c-6.482-2.302-13.07-4.326-19.726-6.063c-6.754-1.763-13.582-3.298-20.457-4.51c-6.868-1.211-13.763-2.267-20.694-3.045
			c-7.212-0.81-14.43-1.425-21.67-1.914c-7.027-0.474-14.066-0.784-21.105-1.015c-6.373-0.209-12.757-0.366-19.133-0.415
			c-8.074-0.062-16.15-0.069-24.224-0.103c-5.581-0.024-11.164-0.084-16.746-0.068c-5.275,0.015-10.55,0.038-15.825,0.056
			c-9.805,0.035-19.609,0.07-29.414,0.105c-10.022,0.036-20.044,0.072-30.067,0.107c-5.834,0.021-11.667,0.042-17.501,0.062
			c-4.284,0.015-8.57,0.126-12.854,0.194c-9.938,0.159-19.876,0.317-29.815,0.476c-4.963,0.079-9.922,0.178-14.884,0.311
			c-6.873,0.184-13.749,0.327-20.62,0.576C281.818,369.997,274.5,370.262,267.182,370.527z"/>
	</g>
	<g id="POLYLINE_415_">
		
			<rect x="805.954" y="78.083" fill="none" stroke="#1B7FFF" stroke-width="3.5" stroke-linecap="round" stroke-linejoin="round" stroke-miterlimit="10" width="625" height="12.5"/>
	</g>
	<g id="POLYLINE_414_">
		
			<rect x="98.954" y="78.083" fill="none" stroke="#1B7FFF" stroke-width="3.5" stroke-linecap="round" stroke-linejoin="round" stroke-miterlimit="10" width="625" height="12.5"/>
	</g>
</g>
<g id="AG-OUTLINE">
</g>
</svg>
